<svg xmlns="http://www.w3.org/2000/svg" viewBox="0 0 1024 1024" role="img" aria-label="Server Manager icon">
  <defs>
    <linearGradient id="bg" x1="170" y1="120" x2="850" y2="900" gradientUnits="userSpaceOnUse">
      <stop offset="0" stop-color="#0f766e"/>
      <stop offset="0.48" stop-color="#2563eb"/>
      <stop offset="1" stop-color="#111827"/>
    </linearGradient>
    <linearGradient id="panel" x1="260" y1="260" x2="760" y2="780" gradientUnits="userSpaceOnUse">
      <stop offset="0" stop-color="#ffffff"/>
      <stop offset="1" stop-color="#dbeafe"/>
    </linearGradient>
    <filter id="shadow" x="-20%" y="-20%" width="140%" height="140%">
      <feDropShadow dx="0" dy="28" stdDeviation="34" flood-color="#020617" flood-opacity="0.35"/>
    </filter>
  </defs>
  <rect width="1024" height="1024" rx="232" fill="url(#bg)"/>
  <circle cx="806" cy="198" r="116" fill="#67e8f9" opacity="0.18"/>
  <circle cx="188" cy="826" r="150" fill="#34d399" opacity="0.15"/>
  <g filter="url(#shadow)">
    <rect x="236" y="236" width="552" height="552" rx="128" fill="#0f172a" opacity="0.34"/>
    <rect x="258" y="216" width="508" height="592" rx="116" fill="url(#panel)"/>
    <rect x="336" y="312" width="352" height="104" rx="30" fill="#0f172a"/>
    <rect x="336" y="460" width="352" height="104" rx="30" fill="#0f172a"/>
    <rect x="336" y="608" width="352" height="104" rx="30" fill="#0f172a"/>
    <circle cx="386" cy="364" r="14" fill="#22c55e"/>
    <circle cx="386" cy="512" r="14" fill="#38bdf8"/>
    <circle cx="386" cy="660" r="14" fill="#f59e0b"/>
    <rect x="430" y="350" width="190" height="28" rx="14" fill="#e0f2fe"/>
    <rect x="430" y="498" width="190" height="28" rx="14" fill="#e0f2fe"/>
    <rect x="430" y="646" width="190" height="28" rx="14" fill="#e0f2fe"/>
    <path d="M688 602c58 14 98 46 98 94 0 64-58 108-98 128-40-20-98-64-98-128 0-48 40-80 98-94z" fill="#2563eb"/>
    <path d="M644 696l32 32 58-70" fill="none" stroke="#ffffff" stroke-width="28" stroke-linecap="round" stroke-linejoin="round"/>
  </g>
</svg>
